PathFileType	4	(X/Y/Z)	C:/Users/beibeiliu/ov580/test_trc\sequence.17_training_dense_right.trc
DataRate	CameraRate	NumFrames	NumMarkers	Units	OrigDataRate	OrigDataStartFrame	OrigNumFrames
120	120	16	19	mm	120	266	303
Frame#	Time	ThumbCMC			ThumbMCP			ThumbIP			ThumbTip			IndexMCP			IndexPIP			IndexTip			MiddleMCP			MiddlePIP			MiddleTip			RingMCP			RingPIP			RingTip			PinkyMCP			PinkyPIP			PinkyTip			BackHand1			BackHand2			BackHand3	
		X0	Y0	Z0	X1	Y1	Z1	X2	Y2	Z2	X3	Y3	Z3	X4	Y4	Z4	X5	Y5	Z5	X6	Y6	Z6	X7	Y7	Z7	X8	Y8	Z8	X9	Y9	Z9	X10	Y10	Z10	X11	Y11	Z11	X12	Y12	Z12	X13	Y13	Z13	X14	Y14	Z14	X15	Y15	Z15	X16	Y16	Z16	X17	Y17	Z17	X18	Y18	Z18	
265	2.20833	192.399	-7.00095	30.3705	182.368	-25.1465	11.7581	168.991	-34.7915	-6.52068	157.801	-43.965	-17.5886	188.543	7.89769	-34.0147	183.612	2.36325	-53.6531	180.658	-2.67822	-76.4468	211.964	-10.3189	-38.2345	216.146	-36.9043	-33.3788	219.405	-38.5763	-0.981622	228.887	-13.6717	-28.5464	229.408	-37.7442	-12.4357	224.273	-29.0025	10.0783	246.914	-12.6492	-21.9106	238.159	-30.6585	-10.7252	230.175	-18.293	13.492	232.469	22.2888	4.13322	231.889	24.9974	37.1508	204.069	20.6589	23.4582	
266	2.21667	187.629	-7.91393	30.2914	182.748	-23.9583	12.5975	171.695	-31.0702	-5.31693	155.871	-42.4775	-17.7089	187.739	8.49138	-31.1498	181.022	0.809771	-56.6431	181.037	-3.63727	-76.2374	211.685	-6.14881	-39.8903	215.563	-35.0705	-40.437	216.49	-45.3074	-11.1832	226.231	-9.35401	-31.4882	232.419	-33.4533	-22.3537	225.342	-32.2062	6.45688	243.32	-4.15501	-21.7577	241.739	-29.656	-12.5268	224.812	-23.353	9.67739	229.489	25.7537	6.76941	229.879	25.2264	32.1522	204.73	19.9168	23.9213	
267	2.225	191.227	-6.55223	34.0642	180.415	-21.7004	11.9391	168.54	-29.8595	-5.0498	157.26	-38.4893	-17.4563	181.036	6.08911	-31.329	182.879	1.82219	-54.0507	179.977	-5.12576	-80.236	206.123	-1.07306	-40.745	214.888	-27.7636	-49.1307	220.357	-48.8091	-28.3765	226.944	-4.24339	-34.6394	227.346	-31.7794	-29.9479	224.392	-39.1319	-1.88788	243.157	-1.22623	-22.9131	242.606	-25.9728	-20.2337	227.366	-29.0717	4.39757	226.902	27.3648	4.94843	227.116	28.9694	33.3238	200.223	21.0671	20.8447	
268	2.23333	186.893	-7.92161	36.5184	175.078	-23.2223	13.4714	167.298	-28.9766	-1.80355	151.149	-36.139	-15.5874	182.722	6.98483	-35.123	177.007	-1.18096	-55.3422	175.796	-6.75596	-76.2381	206.043	3.02611	-41.1526	208.572	-18.9157	-56.6114	223.409	-48.9818	-49.1481	223.972	-0.421203	-36.8311	226.907	-27.5514	-39.5778	226.728	-44.9552	-20.2415	244.787	2.24761	-24.31	241.636	-24.7464	-26.1821	233	-38.1296	-5.97557	223.323	26.2017	6.48615	227.77	26.7091	36.3588	197.848	19.3607	27.1232	
269	2.24167	188.473	-8.22853	33.4565	175.522	-21.2508	14.0336	163.163	-28.6666	-2.64889	150.366	-34.8418	-13.4126	178.293	3.61759	-31.2548	178.137	-1.18456	-55.8146	177.261	-6.07398	-74.4493	201.346	4.75644	-38.4195	210.087	-14.1248	-62.0983	220.876	-41.3593	-68.6215	224.475	5.22485	-34.2217	227.155	-18.4058	-47.1	229.305	-43.1363	-40.2929	245.732	5.28871	-25.1124	244.444	-18.0667	-32.8099	238.688	-39.231	-21.9675	220.75	27.1107	8.25389	221.995	27.7851	34.424	195.043	18.6014	25.661	
270	2.25	182.278	-9.74281	34.8445	171.956	-23.1032	17.4509	163.888	-27.1199	-0.342012	150.736	-32.0647	-13.8436	180.739	3.8633	-32.2588	178.807	-2.28528	-55.8693	175.779	-6.99581	-74.6137	200.367	4.56733	-39.975	206.904	-8.48168	-61.8652	212.134	-33.9988	-79.4285	223.194	4.55634	-36.189	225.768	-17.7233	-53.0157	229.983	-41.7912	-56.0434	244.175	8.23122	-23.9647	247.737	-10.731	-36.859	240.453	-33.55	-39.3305	220.286	23.9073	12.304	218.754	26.3492	38.7378	195.376	19.2902	27.8475	
271	2.25833	182.769	-10.3956	35.4689	169.949	-22.6796	16.4477	158.06	-27.5573	0.100744	146.56	-29.5773	-13.4989	179.875	0.638438	-31.5875	176.834	-4.846	-54.2856	175.755	-9.97313	-79.2614	201.802	4.11536	-39.8595	206.491	-5.99334	-62.8658	211.67	-23.894	-82.4323	222.817	5.524	-34.7355	229.457	-11.5176	-55.8339	229.286	-30.9401	-67.3096	242.672	7.48729	-24.198	249.086	-8.8472	-41.6376	246.951	-23.9086	-53.5498	218.178	24.2381	7.79785	224.252	24.3029	38.3617	193.686	18.0487	25.7381	
272	2.26667	183.085	-9.19955	32.1514	171.852	-19.9336	14.2094	159.182	-23.4543	-3.9529	146.341	-29.0598	-11.6963	179.388	-1.33478	-30.9861	179.454	-5.93158	-54.7734	175.204	-11.9103	-74.6678	205.86	3.91197	-43.1317	206.118	-6.72153	-65.3321	209.509	-22.9014	-89.1481	221.849	4.17153	-34.5366	228.783	-8.77168	-59.2393	227.651	-22.9704	-72.2489	246.301	4.71069	-26.7967	251.987	-4.96164	-43.2211	254.489	-16.2295	-59.5572	220.719	19.2667	8.29038	222.41	24.5294	34.366	199.892	17.5561	23.6052	
273	2.275	183.349	-8.23217	34.955	172.041	-18.0487	12.7937	157.273	-24.9297	-0.314216	142.431	-27.6191	-10.5906	182.226	-0.85314	-31.9968	178.527	-7.7815	-53.0591	177.853	-13.9929	-75.0898	207.173	3.54313	-40.6597	206.366	-6.78351	-66.6792	208.334	-16.7243	-86.9707	226.049	2.2625	-37.6875	228.674	-6.82996	-58.3003	225.575	-18.6008	-78.0899	248.223	4.06824	-22.6967	248.751	-0.964516	-40.6603	254.423	-5.00535	-57.5012	221.344	18.9247	11.5385	223.772	20.3536	32.3171	199.492	16.3946	19.3239	
274	2.28333	185.244	-7.66481	36.891	172.616	-18.6184	17.7281	154.66	-22.7639	-3.46249	144.11	-26.6521	-12.3294	180.775	-3.12087	-35.0757	180.616	-8.7901	-54.3381	173.554	-14.3988	-74.124	205.078	0.455461	-43.6728	207.315	-6.66929	-66.0824	206.074	-14.2741	-89.3663	227.637	1.9446	-39.3	226.031	-4.72599	-55.0087	229.159	-13.1129	-78.0706	249.732	2.01084	-20.0657	253.395	-1.01645	-39.6793	259.264	-3.19207	-55.9091	222.64	17.9189	9.6346	228.584	21.8809	37.0513	202.108	15.2677	20.5446	
275	2.29167	184.851	-7.32526	34.9206	167.924	-18.4624	16.0645	158.934	-21.0425	-2.8573	142.25	-24.9817	-9.96121	184.866	-2.33143	-31.3271	178.885	-9.5772	-54.1112	173.727	-14.3151	-76.9025	209.38	0.91176	-40.9029	207.222	-6.76289	-64.7523	209.056	-12.4789	-85.7704	228.784	1.83909	-32.3727	231.396	-4.46982	-55.238	228.436	-9.57082	-74.0353	250.156	0.10512	-22.9177	251.323	-2.71184	-39.5996	259.144	-0.339706	-53.7103	227.579	14.2281	6.4286	225.589	19.8518	35.5752	203.641	14.5516	22.6094	
276	2.3	185.176	-6.96175	37.8215	167.545	-17.8466	18.6903	153.587	-21.5523	1.53562	140.393	-23.9839	-8.89549	184.118	-2.29785	-30.5985	182.716	-9.00371	-52.59	174.17	-13.2343	-76.3431	205.958	-0.264831	-37.8955	208.336	-6.57231	-64.504	211.049	-10.5635	-85.0093	227.185	-0.0241819	-36.862	229.373	-3.99408	-57.5128	231.077	-7.22155	-72.8453	246.478	-0.852096	-22.3527	251.955	-3.48767	-39.2009	261.235	0.513279	-52.8071	225.25	12.276	7.13611	230.024	17.3384	36.5452	203.733	14.4051	20.885	
277	2.30833	185.804	-5.55856	32.4419	170.055	-15.0697	16.1734	153.904	-19.5277	-1.082	144.644	-23.8566	-8.813	185.168	-2.61299	-33.66	179.674	-8.5884	-51.8819	177.717	-10.8043	-77.6493	208.87	0.0872275	-38.9025	208.496	-5.29275	-60.9382	212.443	-9.68224	-89.507	226.818	-0.482315	-35.7023	232.267	-2.87106	-52.9681	229.547	-4.51969	-76.4005	248.889	-3.39692	-19.0274	257.33	-4.74999	-37.4924	260.428	-1.96681	-54.337	227.571	12.0955	8.33213	228.442	18.3915	36.6818	199.893	15.7126	21.6874	
278	2.31667	182.441	-5.06679	34.1742	169.225	-14.2809	14.9764	154.412	-19.2173	-0.86155	141.339	-22.411	-11.8928	183.163	-1.0434	-32.5123	180.25	-6.19571	-54.0541	178.808	-7.91629	-72.9808	211.56	0.0730843	-39.9821	207.605	-3.63772	-59.9882	208.492	-6.1811	-85.3041	227.194	-0.0481297	-35.2735	231.608	-1.89446	-53.7218	233.399	-3.5747	-74.1014	249.396	-3.35915	-17.5819	257.398	-5.06324	-32.7026	264.431	0.00584989	-53.1569	227.906	11.3925	8.60109	231.837	18.7242	36.8955	200.5	15.1432	21.7361	
279	2.325	183.578	-4.2919	35.7845	167.647	-15.0656	18.1029	152.61	-19.2716	2.34712	143.535	-22.7777	-9.31754	187.367	0.47223	-33.0746	182.632	-3.60553	-54.9525	174.997	-3.49054	-71.8544	210.852	1.42332	-38.4774	209.669	-1.35925	-63.3534	209.402	-2.85339	-84.0187	227.839	0.772154	-33.125	232.27	-0.769457	-53.19	234.725	-1.25351	-71.0042	252.456	-4.72023	-16.6058	257.943	-6.13434	-33.2414	262.485	0.300086	-51.7522	231.101	12.48	13.322	227.791	18.236	35.7922	203.051	17.103	22.4981	
280	2.33333	182.542	-4.75357	37.0694	169.213	-14.834	19.024	154.563	-18.9145	-2.74153	139.966	-23.1177	-11.878	188.815	1.96073	-32.0814	180.773	-0.26751	-55.8605	174.805	-1.31309	-75.9434	210.826	3.23707	-42.5996	211.526	0.341201	-60.7613	211.056	-0.0878292	-87.7498	227.447	1.14236	-34.957	230.131	0.320338	-51.5393	236.165	-0.0470324	-73.4627	249.041	-3.13517	-16.3842	258.073	-4.97095	-34.8576	262.068	-1.31489	-53.7835	228.081	12.6693	8.8042	229.653	17.5831	35.2747	201.908	15.104	20.1571	
